<svg xmlns="http://www.w3.org/2000/svg" x="0px" y="0px"
width="144" height="144"
viewBox="0 0 226 226"
style=" fill:#000000;"><g fill="none" fill-rule="nonzero" stroke="none" stroke-width="1" stroke-linecap="butt" stroke-linejoin="miter" stroke-miterlimit="10" stroke-dasharray="" stroke-dashoffset="0" font-family="none" font-weight="none" font-size="none" text-anchor="none" style="mix-blend-mode: normal"><path d="M0,226v-226h226v226z" fill="none"></path><g fill="#2ecc71"><path d="M113,18.83333c-41.60283,0 -75.33333,33.7305 -75.33333,75.33333v9.41667v8.49707c-5.40243,5.15155 -9.41667,11.77839 -9.41667,19.75293c0,11.6952 8.07527,20.36735 18.29997,24.6084c12.2514,29.28407 36.78976,50.72494 66.45003,50.72494c29.66028,0 54.19863,-21.44086 66.45004,-50.72494c10.22469,-4.24105 18.29996,-12.9132 18.29996,-24.6084c0,-7.97454 -4.01424,-14.60138 -9.41667,-19.75293v-8.49707v-9.41667c0,-41.60283 -33.7305,-75.33333 -75.33333,-75.33333zM65.91667,94.16667h94.16667c5.198,0 9.41667,4.21867 9.41667,9.41667v9.41667v8.01888l4.72672,2.70362c2.85926,1.64133 4.68994,4.4855 4.68994,8.11084c0,4.85072 -3.47316,8.5947 -8.11084,9.23275l-5.51758,0.77246l-2.00471,5.18652c-9.70671,25.29526 -29.01648,41.30827 -50.28353,41.30827c-21.26705,0 -40.57682,-16.01302 -50.28353,-41.30827l-2.00472,-5.18652l-5.51758,-0.77246c-4.63768,-0.63805 -8.11084,-4.38203 -8.11084,-9.23275c0,-3.62534 1.83068,-6.4695 4.68994,-8.11084l4.72673,-2.70362v-8.01888v-9.41667c0,-5.198 4.21867,-9.41667 9.41667,-9.41667z"></path></g></g></svg>